<svg width="457" height="217" viewBox="0 0 457 217" fill="none" xmlns="http://www.w3.org/2000/svg">
<path d="M166.406 190.936C166.475 191.319 166.625 191.654 166.858 191.942C167.09 192.229 167.391 192.455 167.76 192.619C168.143 192.769 168.588 192.844 169.094 192.844C169.887 192.844 170.482 192.667 170.879 192.311C171.276 191.942 171.474 191.497 171.474 190.977C171.474 190.567 171.351 190.225 171.105 189.951C170.859 189.678 170.51 189.445 170.058 189.254C169.621 189.062 169.108 188.877 168.52 188.7C167.972 188.535 167.432 188.358 166.899 188.166C166.365 187.975 165.879 187.735 165.442 187.448C165.004 187.161 164.655 186.791 164.395 186.34C164.149 185.875 164.026 185.294 164.026 184.596C164.026 183.72 164.238 182.975 164.662 182.359C165.1 181.744 165.695 181.279 166.447 180.964C167.2 180.649 168.068 180.492 169.053 180.492C169.887 180.492 170.64 180.615 171.31 180.862C171.98 181.094 172.541 181.443 172.993 181.908C173.458 182.359 173.8 182.92 174.019 183.59L171.454 184.288C171.385 183.987 171.235 183.727 171.002 183.508C170.77 183.29 170.489 183.119 170.161 182.995C169.833 182.859 169.477 182.79 169.094 182.79C168.684 182.777 168.308 182.838 167.966 182.975C167.624 183.112 167.35 183.31 167.145 183.57C166.94 183.83 166.837 184.131 166.837 184.473C166.837 184.856 166.953 185.164 167.186 185.396C167.418 185.615 167.726 185.806 168.109 185.971C168.492 186.121 168.923 186.272 169.402 186.422C169.976 186.586 170.551 186.778 171.125 186.997C171.7 187.202 172.227 187.468 172.705 187.797C173.184 188.111 173.567 188.515 173.854 189.007C174.155 189.5 174.306 190.122 174.306 190.875C174.306 191.668 174.114 192.386 173.731 193.029C173.362 193.672 172.801 194.185 172.049 194.568C171.296 194.951 170.353 195.142 169.217 195.142C168.287 195.142 167.439 195.006 166.673 194.732C165.921 194.458 165.298 194.062 164.806 193.542C164.313 193.009 163.992 192.379 163.841 191.654L166.406 190.936Z" fill="#0C4768"/>
<path d="M200.606 195.142C199.594 195.142 198.643 194.965 197.754 194.609C196.865 194.253 196.085 193.754 195.415 193.111C194.759 192.455 194.239 191.682 193.856 190.793C193.473 189.89 193.281 188.898 193.281 187.817C193.281 186.737 193.473 185.752 193.856 184.863C194.239 183.974 194.759 183.201 195.415 182.544C196.085 181.887 196.865 181.381 197.754 181.026C198.643 180.67 199.594 180.492 200.606 180.492C201.632 180.492 202.583 180.67 203.458 181.026C204.348 181.381 205.127 181.887 205.798 182.544C206.468 183.201 206.988 183.974 207.357 184.863C207.74 185.752 207.932 186.737 207.932 187.817C207.932 188.898 207.74 189.89 207.357 190.793C206.988 191.682 206.468 192.455 205.798 193.111C205.127 193.754 204.348 194.253 203.458 194.609C202.583 194.965 201.632 195.142 200.606 195.142ZM200.627 192.783C201.489 192.783 202.255 192.578 202.925 192.167C203.609 191.743 204.142 191.162 204.525 190.423C204.922 189.684 205.12 188.816 205.12 187.817C205.12 186.819 204.922 185.95 204.525 185.211C204.142 184.473 203.609 183.898 202.925 183.488C202.255 183.064 201.489 182.852 200.627 182.852C199.738 182.852 198.951 183.064 198.267 183.488C197.597 183.898 197.07 184.473 196.687 185.211C196.304 185.95 196.113 186.819 196.113 187.817C196.113 188.802 196.304 189.671 196.687 190.423C197.07 191.176 197.597 191.757 198.267 192.167C198.951 192.578 199.738 192.783 200.627 192.783Z" fill="#0C4768"/>
<path d="M230.22 180.636V192.68H236.622V194.999H227.45V180.636H230.22Z" fill="#0C4768"/>
<path d="M252.829 180.636H255.599V189.705C255.599 190.375 255.736 190.943 256.01 191.408C256.283 191.859 256.652 192.201 257.118 192.434C257.596 192.667 258.143 192.783 258.759 192.783C259.388 192.783 259.942 192.667 260.421 192.434C260.9 192.201 261.276 191.859 261.55 191.408C261.823 190.943 261.96 190.375 261.96 189.705V180.636H264.73V189.561C264.73 190.505 264.566 191.326 264.237 192.024C263.909 192.721 263.458 193.303 262.883 193.768C262.322 194.233 261.68 194.582 260.955 194.814C260.243 195.033 259.498 195.142 258.718 195.142C257.678 195.142 256.707 194.937 255.804 194.527C254.915 194.117 254.197 193.501 253.65 192.68C253.103 191.859 252.829 190.82 252.829 189.561V180.636Z" fill="#0C4768"/>
<path d="M287.202 180.636H298.856V182.954H294.424V194.999H291.654V182.954H287.202V180.636Z" fill="#0C4768"/>
<path d="M318.365 180.636H321.135V194.999H318.365V180.636Z" fill="#0C4768"/>
<path d="M348.003 195.142C346.991 195.142 346.04 194.965 345.151 194.609C344.262 194.253 343.482 193.754 342.812 193.111C342.156 192.455 341.636 191.682 341.253 190.793C340.87 189.89 340.678 188.898 340.678 187.817C340.678 186.737 340.87 185.752 341.253 184.863C341.636 183.974 342.156 183.201 342.812 182.544C343.482 181.887 344.262 181.381 345.151 181.026C346.04 180.67 346.991 180.492 348.003 180.492C349.029 180.492 349.98 180.67 350.855 181.026C351.745 181.381 352.524 181.887 353.195 182.544C353.865 183.201 354.385 183.974 354.754 184.863C355.137 185.752 355.328 186.737 355.328 187.817C355.328 188.898 355.137 189.89 354.754 190.793C354.385 191.682 353.865 192.455 353.195 193.111C352.524 193.754 351.745 194.253 350.855 194.609C349.98 194.965 349.029 195.142 348.003 195.142ZM348.024 192.783C348.886 192.783 349.652 192.578 350.322 192.167C351.006 191.743 351.539 191.162 351.922 190.423C352.319 189.684 352.517 188.816 352.517 187.817C352.517 186.819 352.319 185.95 351.922 185.211C351.539 184.473 351.006 183.898 350.322 183.488C349.652 183.064 348.886 182.852 348.024 182.852C347.135 182.852 346.348 183.064 345.664 183.488C344.994 183.898 344.467 184.473 344.084 185.211C343.701 185.95 343.51 186.819 343.51 187.817C343.51 188.802 343.701 189.671 344.084 190.423C344.467 191.176 344.994 191.757 345.664 192.167C346.348 192.578 347.135 192.783 348.024 192.783Z" fill="#0C4768"/>
<path d="M386.727 180.636V194.999H383.895L377.617 185.027V194.999H374.847V180.636H377.658L383.957 190.608V180.636H386.727Z" fill="#0C4768"/>
<path d="M408.966 190.936C409.034 191.319 409.185 191.654 409.417 191.942C409.65 192.229 409.951 192.455 410.32 192.619C410.703 192.769 411.148 192.844 411.654 192.844C412.447 192.844 413.042 192.667 413.439 192.311C413.836 191.942 414.034 191.497 414.034 190.977C414.034 190.567 413.911 190.225 413.665 189.951C413.418 189.678 413.07 189.445 412.618 189.254C412.18 189.062 411.667 188.877 411.079 188.7C410.532 188.535 409.992 188.358 409.458 188.166C408.925 187.975 408.439 187.735 408.002 187.448C407.564 187.161 407.215 186.791 406.955 186.34C406.709 185.875 406.586 185.294 406.586 184.596C406.586 183.72 406.798 182.975 407.222 182.359C407.66 181.744 408.255 181.279 409.007 180.964C409.759 180.649 410.628 180.492 411.613 180.492C412.447 180.492 413.2 180.615 413.87 180.862C414.54 181.094 415.101 181.443 415.552 181.908C416.017 182.359 416.359 182.92 416.578 183.59L414.013 184.288C413.945 183.987 413.795 183.727 413.562 183.508C413.329 183.29 413.049 183.119 412.721 182.995C412.392 182.859 412.037 182.79 411.654 182.79C411.243 182.777 410.867 182.838 410.525 182.975C410.183 183.112 409.91 183.31 409.705 183.57C409.499 183.83 409.397 184.131 409.397 184.473C409.397 184.856 409.513 185.164 409.746 185.396C409.978 185.615 410.286 185.806 410.669 185.971C411.052 186.121 411.483 186.272 411.962 186.422C412.536 186.586 413.111 186.778 413.685 186.997C414.26 187.202 414.786 187.468 415.265 187.797C415.744 188.111 416.127 188.515 416.414 189.007C416.715 189.5 416.866 190.122 416.866 190.875C416.866 191.668 416.674 192.386 416.291 193.029C415.922 193.672 415.361 194.185 414.608 194.568C413.856 194.951 412.912 195.142 411.777 195.142C410.847 195.142 409.999 195.006 409.233 194.732C408.48 194.458 407.858 194.062 407.365 193.542C406.873 193.009 406.552 192.379 406.401 191.654L408.966 190.936Z" fill="#0C4768"/>
<rect x="232" y="83" width="9" height="25" fill="#0D9DB7"/>
<rect x="218" y="83" width="9" height="25" fill="#0D9DB7"/>
<rect x="262" y="76" width="9" height="15" fill="#0D9DB7"/>
<rect x="276" y="67" width="9" height="24" fill="#0D9DB7"/>
<rect x="290" y="67" width="9" height="24" fill="#0D9DB7"/>
<rect x="303" y="56" width="11" height="35" fill="#0D9DB7"/>
<rect x="303" y="31" width="11" height="21" fill="#0D9DB7"/>
<rect x="328" y="10" width="11" height="21" fill="#0D9DB7"/>
<rect x="319" y="36" width="20" height="69" fill="#0D9DB7"/>
<path fill-rule="evenodd" clip-rule="evenodd" d="M245.798 88.6445H257.127V163.996H244.277V160.896C239.623 164.995 233.152 164.995 230.156 164.995C218.513 164.995 211.224 151.332 218.641 141.085C221.594 138.389 223.747 136.771 231.273 135.87C238.8 134.971 245.277 137.084 245.277 137.084C245.277 137.084 246 135.119 245 131.499C244 127.879 238.813 125.66 235.704 125.66C233.392 125.66 231.37 126.238 229.636 127.394C227.966 128.485 226.843 130.155 226.265 132.402L215.669 128.55C216.953 124.247 219.394 120.94 222.99 118.629C226.586 116.317 231.016 115.161 236.282 115.161C239.989 115.161 243.161 115.695 245.798 116.766V88.6445ZM234.743 144.11C228.595 144.11 224.416 149.557 229.083 153.675C233.23 157.09 244.277 154.943 244.277 149.576C244.277 146.258 241.038 144.11 234.743 144.11Z" fill="#0D9DB7"/>
<path d="M20.6675 116.413C18.9338 120.587 18.0669 125.211 18.0669 130.283C18.0669 135.292 18.9338 139.916 20.6675 144.154C22.4014 148.328 24.8093 151.956 27.8918 155.038C30.9741 158.121 34.5701 160.497 38.6797 162.166C42.8538 163.836 47.3489 164.671 52.1648 164.671C59.2927 164.671 65.5857 162.937 71.0439 159.47C73.915 157.611 76.4128 155.274 78.5378 152.457L70.2888 144.798C69.314 146.176 68.2493 147.374 67.0947 148.393C64.9116 150.318 62.5356 151.699 59.967 152.534C57.4626 153.305 54.926 153.689 52.3574 153.689C48.2478 153.689 44.5876 152.694 41.3767 150.704C38.166 148.713 35.6616 145.984 33.8638 142.517C32.1299 138.984 31.2629 134.907 31.2629 130.283C31.2629 125.66 32.1299 121.583 33.8638 118.051C35.6616 114.519 38.166 111.79 41.3767 109.863C44.5876 107.873 48.2478 106.877 52.3574 106.877C54.8618 106.877 57.3342 107.263 59.7744 108.033C62.2146 108.804 64.4619 110.024 66.5168 111.693C68.636 113.363 70.4019 115.547 71.8145 118.243C73.6367 116.82 75.2324 115.459 76.925 114.017L76.9558 113.99L77.0254 113.932C78.1321 112.987 79.2827 112.006 80.5679 110.948C80.5679 110.948 78.1482 106.169 70.5625 100.905C65.2327 97.5664 59.1001 95.8965 52.1648 95.8965C47.3489 95.8965 42.8538 96.7314 38.6797 98.4014C34.5701 100.07 30.9741 102.446 27.8918 105.529C24.8093 108.547 22.4014 112.175 20.6675 116.413Z" fill="#0D9DB7"/>
<path d="M175.312 109.552C176.789 110.965 178.684 111.671 180.995 111.671C183.179 111.671 185.009 110.965 186.486 109.552C188.027 108.075 188.797 106.276 188.797 104.157C188.797 102.038 188.027 100.272 186.486 98.8604C185.009 97.3828 183.179 96.6445 180.995 96.6445C178.684 96.6445 176.789 97.3828 175.312 98.8604C173.835 100.272 173.097 102.038 173.097 104.157C173.097 106.276 173.835 108.075 175.312 109.552Z" fill="#0D9DB7"/>
<path d="M174.734 115.835H187.064V163.996H174.734V115.835Z" fill="#0D9DB7"/>
<path fill-rule="evenodd" clip-rule="evenodd" d="M109.277 160.896V163.996H120.643V132.499C120.643 127.298 119.005 123.124 115.73 119.978C112.52 116.767 107.704 115.161 101.282 115.161C96.0164 115.161 91.5857 116.317 87.9895 118.629C84.3936 120.94 81.9534 124.247 80.6692 128.55L91.2646 132.402C91.8425 130.155 92.9663 128.485 94.6357 127.394C96.3696 126.238 98.3923 125.66 100.704 125.66C103.813 125.66 108.313 127.394 109.277 131.619V137.084C109.277 137.084 103.8 134.971 96.2732 135.87C88.7471 136.771 86.5945 138.389 83.6406 141.085C76.2236 151.332 83.5127 164.995 95.1565 164.995C98.1523 164.995 104.623 164.995 109.277 160.896ZM94.083 153.675C89.4163 149.557 93.595 144.11 99.7432 144.11C106.038 144.11 109.277 146.258 109.277 149.576C109.277 154.943 98.23 157.09 94.083 153.675Z" fill="#0D9DB7"/>
<path fill-rule="evenodd" clip-rule="evenodd" d="M137.564 185.261V160.701C140.437 163.778 145.722 165.671 150.013 165.671C154.251 165.671 157.943 164.676 161.09 162.685C164.301 160.63 166.805 157.74 168.603 154.016C170.465 150.291 171.396 145.925 171.396 140.916C171.396 135.907 170.465 131.572 168.603 127.912C166.805 124.188 164.301 121.298 161.09 119.243C157.879 117.188 154.187 116.161 150.013 116.161C144.775 116.161 140.333 117.65 137.179 121.808L136.409 115.835H125.235V185.261H137.564ZM160.104 140.916C160.104 136.87 159.044 133.628 156.925 131.188C154.87 128.683 152.173 127.431 148.834 127.431C146.779 127.431 144.885 127.977 143.151 129.068C141.482 130.096 140.133 131.604 139.106 133.596C138.078 135.521 137.564 137.962 137.564 140.916C137.564 143.806 138.078 146.246 139.106 148.236C140.133 150.227 141.482 151.769 143.151 152.859C144.885 153.888 146.779 154.401 148.834 154.401C152.173 154.401 154.87 153.181 156.925 150.741C159.044 148.236 160.104 144.961 160.104 140.916Z" fill="#0D9DB7"/>
<path d="M195.326 115.835V102.351H207.847V115.835H214.443V126.72H207.847V146.273C207.847 151.52 208.67 154.401 213.009 155.188V165.016C198.971 165.671 195.326 156.434 195.326 146.273V126.72H189.487V115.835H195.326Z" fill="#0D9DB7"/>
<path d="M261.844 96.5723H299.235V107.456H274.848V124.602H295.566V135.101H274.848V184.805L261.844 163.997V96.5723Z" fill="#0C4768"/>
<path fill-rule="evenodd" clip-rule="evenodd" d="M329.376 161.686C333.036 163.677 337.21 164.672 341.898 164.672C346.585 164.672 350.792 163.677 354.516 161.686C358.304 159.631 361.291 156.741 363.474 153.017C365.721 149.292 366.845 144.894 366.845 139.82C366.845 134.812 365.753 130.478 363.57 126.817C361.387 123.093 358.433 120.235 354.708 118.244C350.984 116.189 346.81 115.162 342.187 115.162C337.563 115.162 333.389 116.189 329.665 118.244C325.94 120.235 322.986 123.093 320.803 126.817C318.684 130.542 317.625 134.94 317.625 140.013C317.625 145.021 318.652 149.389 320.707 153.113C322.826 156.773 325.716 159.631 329.376 161.686ZM342 154C349.732 154 356 147.732 356 140C356 132.268 349.732 126 342 126C334.268 126 328 132.268 328 140C328 147.732 334.268 154 342 154Z" fill="#0C4768"/>
<path d="M391.502 163.997H378.884L364.628 115.836H377.343L385.337 148.394L393.814 115.836H406.143L414.33 148.394L422.229 115.836H434.847L420.591 163.997H407.684L399.689 133.752L391.502 163.997Z" fill="#0C4768"/>
<path d="M314.127 96.6455H302.798V163.997H314.127V96.6455Z" fill="#0C4768"/>
</svg>
