<svg xmlns="http://www.w3.org/2000/svg" width="800" height="800" viewBox="0 0 800 800" fill="none"><path d="M433.333 700H200C137.146 700 105.719 700 86.1928 680.473C66.6665 660.947 66.6665 629.52 66.6665 566.667C66.6665 503.813 66.6665 472.387 86.1928 452.86C105.719 433.333 137.146 433.333 200 433.333H600C662.853 433.333 694.28 433.333 713.806 452.86C733.333 472.387 733.333 503.813 733.333 566.667C733.333 629.52 733.333 660.947 713.806 680.473C694.28 700 662.853 700 600 700H566.666" stroke="#00A7C9" stroke-width="50" stroke-linecap="round"></path><path d="M366.666 66.6667H600C662.853 66.6667 694.28 66.6667 713.806 86.1931C733.333 105.719 733.333 137.146 733.333 200C733.333 262.854 733.333 294.281 713.806 313.807C694.28 333.333 662.853 333.333 600 333.333H200C137.146 333.333 105.719 333.333 86.1928 313.807C66.6665 294.281 66.6665 262.854 66.6665 200C66.6665 137.146 66.6665 105.719 86.1928 86.1931C105.719 66.6667 137.146 66.6667 200 66.6667H233.333" stroke="#00A7C9" stroke-width="50" stroke-linecap="round"></path><path d="M450 200H600" stroke="#00A7C9" stroke-width="50" stroke-linecap="round"></path><path d="M200 233.333V166.667" stroke="#00A7C9" stroke-width="50" stroke-linecap="round"></path><path d="M300 233.333V166.667" stroke="#00A7C9" stroke-width="50" stroke-linecap="round"></path><path d="M450 566.667H600" stroke="#00A7C9" stroke-width="50" stroke-linecap="round"></path><path d="M200 600V533.333" stroke="#00A7C9" stroke-width="50" stroke-linecap="round"></path><path d="M300 600V533.333" stroke="#00A7C9" stroke-width="50" stroke-linecap="round"></path></svg>