<svg xmlns="http://www.w3.org/2000/svg" width="800" height="800" viewBox="0 0 800 800" fill="none"><path d="M633.334 533.333C633.334 627.613 633.334 674.753 604.044 704.043C574.754 733.333 527.614 733.333 433.334 733.333H366.667C272.386 733.333 225.246 733.333 195.956 704.043C166.667 674.753 166.667 627.613 166.667 533.333V400M166.667 266.667C166.667 172.386 166.667 125.245 195.956 95.956C225.246 66.6666 272.386 66.6666 366.667 66.6666H433.334C527.614 66.6666 574.754 66.6666 604.044 95.956C633.334 125.245 633.334 172.386 633.334 266.667V400" stroke="#00A7C9" stroke-width="50" stroke-linecap="round"></path><path d="M166.667 135.872C134.164 139.069 112.286 146.295 95.9563 162.624C66.667 191.914 66.667 239.054 66.667 333.337V466.67C66.667 560.95 66.667 608.09 95.9563 637.38C112.286 653.71 134.164 660.933 166.667 664.13" stroke="#00A7C9" stroke-width="50"></path><path d="M633.333 135.872C665.836 139.069 687.713 146.295 704.043 162.624C733.333 191.914 733.333 239.054 733.333 333.337V466.67C733.333 560.95 733.333 608.09 704.043 637.38C687.713 653.71 665.836 660.933 633.333 664.13" stroke="#00A7C9" stroke-width="50"></path><path d="M300 433.333H500" stroke="#00A7C9" stroke-width="50" stroke-linecap="round"></path><path d="M300 300H500" stroke="#00A7C9" stroke-width="50" stroke-linecap="round"></path><path d="M300 566.667H400" stroke="#00A7C9" stroke-width="50" stroke-linecap="round"></path></svg>