<svg xmlns="http://www.w3.org/2000/svg" width="800" height="800" viewBox="0 0 800 800" fill="none"><path d="M333.333 133.333C207.625 133.333 144.772 133.333 105.719 172.386C66.6665 211.438 66.6665 274.292 66.6665 400C66.6665 525.707 66.6665 588.563 105.719 627.613C144.772 666.667 207.625 666.667 333.333 666.667H383.333M466.666 133.333C592.373 133.333 655.23 133.333 694.28 172.386C729.716 207.822 733 262.857 733.303 366.667" stroke="#00A7C9" stroke-width="50" stroke-linecap="round"></path><path d="M516.667 466.667V666.667M516.667 666.667L583.333 600M516.667 666.667L450 600M666.667 666.667V466.667M666.667 466.667L733.333 533.333M666.667 466.667L600 533.333" stroke="#00A7C9" stroke-width="50" stroke-linecap="round" stroke-linejoin="round"></path><path d="M333.333 533.333H200" stroke="#00A7C9" stroke-width="50" stroke-linecap="round"></path><path d="M66.6665 333.333H233.333M733.333 333.333H366.666" stroke="#00A7C9" stroke-width="50" stroke-linecap="round"></path></svg>